<?xml version="1.0" encoding="UTF-8" standalone="no"?>
<svg
   version="1.1"
   id="svg2"
   width="2610"
   height="520"
   viewBox="0 0 2610 520"
   sodipodi:docname="Samsung_(1979).svg"
   inkscape:version="1.0.1 (3bc2e813f5, 2020-09-07)"
   xmlns:inkscape="http://www.inkscape.org/namespaces/inkscape"
   xmlns:sodipodi="http://sodipodi.sourceforge.net/DTD/sodipodi-0.dtd"
   xmlns="http://www.w3.org/2000/svg"
   xmlns:svg="http://www.w3.org/2000/svg"
   xmlns:rdf="http://www.w3.org/1999/02/22-rdf-syntax-ns#"
   xmlns:cc="http://creativecommons.org/ns#"
   xmlns:dc="http://purl.org/dc/elements/1.1/">
  <style
     id="style837" />
  <metadata
     id="metadata8">
    <rdf:RDF>
      <cc:Work
         rdf:about="">
        <dc:format>image/svg+xml</dc:format>
        <dc:type
           rdf:resource="http://purl.org/dc/dcmitype/StillImage" />
        <dc:title />
      </cc:Work>
    </rdf:RDF>
  </metadata>
  <defs
     id="defs6" />
  <sodipodi:namedview
     pagecolor="#ffffff"
     bordercolor="#666666"
     borderopacity="1"
     objecttolerance="10"
     gridtolerance="10"
     guidetolerance="10"
     inkscape:pageopacity="0"
     inkscape:pageshadow="2"
     inkscape:window-width="1920"
     inkscape:window-height="1017"
     id="namedview4"
     showgrid="false"
     inkscape:zoom="0.35355339"
     inkscape:cx="644.92757"
     inkscape:cy="238.8572"
     inkscape:window-x="-8"
     inkscape:window-y="-8"
     inkscape:window-maximized="1"
     inkscape:current-layer="g10"
     inkscape:document-rotation="0"
     showguides="true"
     inkscape:guide-bbox="true"
     inkscape:showpageshadow="0"
     inkscape:pagecheckerboard="1"
     inkscape:deskcolor="#505050">
    <inkscape:grid
       type="xygrid"
       id="grid866"
       originx="0"
       originy="0"
       spacingy="1"
       spacingx="1"
       units="px"
       visible="false" />
  </sodipodi:namedview>
  <g
     inkscape:groupmode="layer"
     inkscape:label="Image"
     id="g10">
    <path
       style="opacity:1;fill:#ffffff;fill-opacity:1;stroke-width:3.85598;stroke-linecap:round;paint-order:markers fill stroke"
       d="m 438.53995,309.88877 h 82.57382 c 0,0 -3.59017,50.26232 57.96586,50.57384 28.10368,0.14218 53.3293,-7.49185 53.56155,-27.49632 0.80968,-69.74537 -197.6914,5.64381 -197.64117,-123.56171 0.0251,-61.07328 50.39838,-90.20395 136.27179,-89.98115 71.90762,0.18654 143.71096,21.72754 143.71096,100.71119 l -80.12229,-0.61905 c 0,0 1.12164,-45.96321 -52.77386,-46.01142 -46.61218,-0.0416 -58.10609,17.89895 -57.96557,33.61232 0.58289,65.18736 194.22398,-17.22303 194.36759,117.19117 0.0844,78.92544 -78.89937,93.28611 -147.17924,93.28813 -136.41207,0.004 -132.76944,-107.707 -132.76944,-107.707 z"
       id="path852"
       sodipodi:nodetypes="ccssssccssssc" />
    <path
       style="opacity:1;fill:#ffffff;fill-opacity:1;stroke-width:3.94157;stroke-linecap:round;paint-order:markers fill stroke"
       d="m 804.73691,123.20014 h 114.88532 l 95.80257,287.45618 -81.4419,-0.24305 -21.541,-53.85248 H 808.32708 l -17.95083,53.85248 h -82.57382 z m 57.44267,71.80332 -35.90167,104.11482 h 68.21316 z"
       id="path854"
       sodipodi:nodetypes="ccccccccccccc" />
    <path
       style="opacity:1;fill:#ffffff;fill-opacity:1;stroke-width:4.21069;stroke-linecap:round;paint-order:markers fill stroke"
       d="m 1027.3273,126.7903 h 136.4262 l 44.9269,226.18046 44.8273,-226.18046 h 136.4264 v 287.21328 h -78.9838 V 216.54446 l -43.082,193.86895 h -122.0656 l -43.082,-190.27879 v 190.27879 h -75.3935 z"
       id="path856"
       sodipodi:nodetypes="cccccccccccccc" />
    <path
       style="opacity:1;fill:#ffffff;fill-opacity:1;stroke-width:3.89658;stroke-linecap:round;paint-order:markers fill stroke"
       d="m 1720.2293,126.7903 h 82.5738 l 0.1293,186.6523 c 0.022,29.0209 21.4118,43.11833 46.5429,43.11833 25.1311,0 49.0797,-14.38942 50.2766,-43.0924 l -0.014,-186.67823 h 82.5738 l 0.011,190.28563 c 0.01,89.74732 -78.9944,100.51782 -132.847,100.51782 -53.8524,0 -129.2236,-10.7705 -129.2296,-86.14082 z"
       id="path860"
       sodipodi:nodetypes="ccszsccszsc" />
    <path
       style="opacity:1;fill:#ffffff;fill-opacity:1;stroke-width:4.01022;stroke-linecap:round;paint-order:markers fill stroke"
       d="m 2011.0329,126.7903 h 136.4262 l 61.0328,179.50831 V 126.7903 l 86.1641,0.003 v 287.21028 h -132.8362 l -68.2132,-201.04929 v 201.04929 l -82.574,-0.007 z"
       id="path862"
       sodipodi:nodetypes="ccccccccccc" />
    <path
       style="opacity:1;fill:#ffffff;fill-opacity:1;stroke-width:3.35432;stroke-linecap:round;paint-order:markers fill stroke"
       d="m 2316.197,263.21661 c 0,-78.98364 50.2624,-143.60664 143.6066,-143.60664 93.3444,0 143.6066,64.623 140.0165,100.52465 h -82.5738 c 0,0 -14.3607,-39.49182 -57.4427,-39.49182 -44.9268,0 -61.0328,46.67215 -61.0328,82.57381 0,50.26233 14.3607,93.34432 61.0328,93.32486 53.5383,-0.0215 61.0329,-46.6527 61.0329,-46.6527 h -61.0329 v -61.03282 h 140.0165 v 75.39349 c 0,14.36066 -21.7653,95.13939 -147.4212,95.13939 -129.246,0 -136.2019,-80.77873 -136.2019,-156.17222 z"
       id="path864"
       sodipodi:nodetypes="szccsssccccsss" />
    <path
       style="opacity:1;fill:#ffffff;fill-opacity:1;stroke-width:3.85598;stroke-linecap:round;paint-order:markers fill stroke"
       d="m 1422.2456,309.88877 h 82.5738 c 0,0 -3.5902,50.26232 57.9659,50.57384 28.1036,0.14218 53.3292,-7.49185 53.5615,-27.49632 0.8097,-69.74537 -197.6914,5.64381 -197.6411,-123.56171 0.025,-61.07328 50.3983,-90.20395 136.2717,-89.98115 71.9076,0.18669 143.7109,21.72754 143.7109,100.71119 l -80.1223,-0.61905 c 0,0 1.1217,-45.96321 -52.7737,-46.01142 -46.6123,-0.0416 -58.1062,17.89895 -57.9656,33.61232 0.5829,65.18736 194.2239,-17.22303 194.3676,117.19117 0.084,78.92544 -78.8995,93.28611 -147.1793,93.28813 -136.412,0.004 -132.7694,-107.707 -132.7694,-107.707 z"
       id="path852-0"
       sodipodi:nodetypes="ccssssccssssc" />
    <g
       id="g1475"
       transform="matrix(3.8826048,0,0,3.8845556,-1425.0131,-1216.4025)">
      <path
         d="m 460.17478,385.55428 -26.21713,-5.48442 -26.69409,5.9618 -5.48442,26.21671 5.9618,26.69451 26.21671,5.48442 26.69451,-5.9618 5.48442,-26.21671 z"
         id="path4235-2-7-35-7"
         style="opacity:1;fill:#ed1c24;fill-opacity:1;stroke-width:0.0890027"
         sodipodi:nodetypes="ccccccccc" />
      <path
         d="m 428.47362,406.28654 5.48443,-26.21711 -5.96182,-26.69408 -26.21669,-5.48443 -26.6945,5.96182 -5.48443,26.21669 5.96182,26.6945 26.21669,5.48443 z"
         id="path4235-2-7"
         style="opacity:1;fill:#ed1c24;fill-opacity:1;stroke-width:0.0890027"
         sodipodi:nodetypes="ccccccccc" />
      <path
         sodipodi:type="star"
         style="opacity:1;fill:#ffffff;fill-opacity:1;fill-rule:evenodd;stroke-width:1.85208;stroke-linecap:round;stroke-linejoin:round;paint-order:fill markers stroke"
         id="path1148"
         sodipodi:sides="4"
         sodipodi:cx="401.77933"
         sodipodi:cy="380.06964"
         sodipodi:r1="32.178719"
         sodipodi:r2="8.1007748"
         sodipodi:arg1="-3.1415862"
         sodipodi:arg2="-2.314477"
         inkscape:flatsided="false"
         inkscape:rounded="0"
         inkscape:randomized="0"
         d="m 369.60061,380.06943 26.69448,-5.96181 5.48445,-26.2167 5.96181,26.69449 26.2167,5.48444 -26.69449,5.96181 -5.48444,26.2167 -5.96181,-26.69448 z" />
      <path
         d="m 460.17521,321.19687 -26.21714,-5.48445 -26.69406,5.96179 -5.48445,26.21672 5.96179,26.69448 26.21672,5.48445 26.69448,-5.96179 5.48445,-26.21672 z"
         id="path4235-2-7-35"
         style="opacity:1;fill:#ed1c24;fill-opacity:1;stroke-width:0.0890027"
         sodipodi:nodetypes="ccccccccc" />
      <path
         sodipodi:type="star"
         style="opacity:1;fill:#ffffff;fill-opacity:1;fill-rule:evenodd;stroke-width:1.85208;stroke-linecap:round;stroke-linejoin:round;paint-order:fill markers stroke"
         id="path1148-0"
         sodipodi:sides="4"
         sodipodi:cx="433.95828"
         sodipodi:cy="347.89114"
         sodipodi:r1="32.178719"
         sodipodi:r2="8.1007748"
         sodipodi:arg1="-3.1415862"
         sodipodi:arg2="-2.314477"
         inkscape:flatsided="false"
         inkscape:rounded="0"
         inkscape:randomized="0"
         d="m 401.77956,347.89094 26.69449,-5.96182 5.48444,-26.21669 5.96181,26.69448 26.2167,5.48444 -26.69448,5.96182 -5.48445,26.21669 -5.96181,-26.69448 z" />
      <path
         sodipodi:type="star"
         style="opacity:1;fill:#ffffff;fill-opacity:1;fill-rule:evenodd;stroke-width:1.85208;stroke-linecap:round;stroke-linejoin:round;paint-order:fill markers stroke"
         id="path1148-0-9"
         sodipodi:sides="4"
         sodipodi:cx="433.95786"
         sodipodi:cy="412.24857"
         sodipodi:r1="32.178719"
         sodipodi:r2="8.1007748"
         sodipodi:arg1="-3.1415862"
         sodipodi:arg2="-2.314477"
         inkscape:flatsided="false"
         inkscape:rounded="0"
         inkscape:randomized="0"
         d="m 401.77914,412.24836 26.69448,-5.96182 5.48444,-26.21669 5.96182,26.69448 26.21669,5.48444 -26.69448,5.96182 -5.48444,26.21669 -5.96182,-26.69448 z" />
    </g>
  </g>
</svg>
